<svg width="66" height="66" viewBox="0 0 66 66" fill="none" xmlns="http://www.w3.org/2000/svg">
<rect width="66" height="66" rx="33" fill="#EADDFF"/>
<path fill-rule="evenodd" clip-rule="evenodd" d="M42.9004 26.4C42.9004 31.8676 38.468 36.3 33.0004 36.3C27.5328 36.3 23.1004 31.8676 23.1004 26.4C23.1004 20.9324 27.5328 16.5 33.0004 16.5C38.468 16.5 42.9004 20.9324 42.9004 26.4ZM39.6004 26.4C39.6004 30.0451 36.6455 33 33.0004 33C29.3553 33 26.4004 30.0451 26.4004 26.4C26.4004 22.7549 29.3553 19.8 33.0004 19.8C36.6455 19.8 39.6004 22.7549 39.6004 26.4Z" fill="#4F378A"/>
<path d="M33.0004 41.25C22.3177 41.25 13.2157 47.5669 9.74854 56.4169C10.5932 57.2556 11.4829 58.0489 12.4138 58.7929C14.9957 50.6677 23.095 44.55 33.0004 44.55C42.9058 44.55 51.0052 50.6677 53.587 58.7929C54.5179 58.0489 55.4077 57.2556 56.2523 56.4169C52.7851 47.5669 43.6832 41.25 33.0004 41.25Z" fill="#4F378A"/>
</svg>
