<svg width="32" height="32" viewBox="0 0 32 32" fill="none" xmlns="http://www.w3.org/2000/svg">
<g clip-path="url(#clip0_97_119)">
<path d="M9.14286 0C7.87857 0 6.85714 0.953333 6.85714 2.13333V4.26667H4.57143C2.05 4.26667 0 6.18 0 8.53333V11.7333H32V8.53333C32 6.18 29.95 4.26667 27.4286 4.26667H25.1429V2.13333C25.1429 0.953333 24.1214 0 22.8571 0C21.5929 0 20.5714 0.953333 20.5714 2.13333V4.26667H11.4286V2.13333C11.4286 0.953333 10.4071 0 9.14286 0ZM0 14.9333V27.7333C0 30.0867 2.05 32 4.57143 32H27.4286C29.95 32 32 30.0867 32 27.7333V14.9333H0Z" fill="#4B5FAB"/>
</g>
<defs>
<clipPath id="clip0_97_119">
<rect width="32" height="32" fill="white"/>
</clipPath>
</defs>
</svg>
