<svg width="32" height="32" viewBox="0 0 32 32" fill="none" xmlns="http://www.w3.org/2000/svg">
<g clip-path="url(#clip0_97_115)">
<path d="M17.3596 0.534427C16.5907 -0.178142 15.403 -0.178142 14.6404 0.534427L0.637941 13.5357C0.037836 14.0983 -0.162199 14.9671 0.137853 15.7297C0.437906 16.4922 1.16928 16.9985 1.99443 16.9985H2.9946V27.9996C2.9946 30.2061 4.78867 32 6.9953 32H24.9984C27.2051 32 28.9991 30.2061 28.9991 27.9996V16.9985H29.9993C30.8245 16.9985 31.5621 16.4922 31.8621 15.7297C32.1622 14.9671 31.9622 14.092 31.3621 13.5357L17.3596 0.534427ZM14.9967 19.9988H16.997C18.6536 19.9988 19.9976 21.3427 19.9976 22.9991V28.9997H11.9962V22.9991C11.9962 21.3427 13.3402 19.9988 14.9967 19.9988Z" fill="#4B5FAB"/>
</g>
<defs>
<clipPath id="clip0_97_115">
<rect width="32" height="32" fill="white"/>
</clipPath>
</defs>
</svg>
