<svg width="32" height="32" viewBox="0 0 32 32" fill="none" xmlns="http://www.w3.org/2000/svg">
<g clip-path="url(#clip0_63_343)">
<path d="M22.0546 1.325L19.2484 4.13125L27.8671 12.75L30.6734 9.94375C31.5234 9.1 31.9984 7.95 31.9984 6.75C31.9984 5.55 31.5234 4.4 30.6734 3.55625L28.4421 1.325C27.5984 0.475 26.4484 0 25.2484 0C24.0484 0 22.8984 0.475 22.0546 1.325ZM17.1296 6.25L3.67961 19.6938C3.01086 20.3625 2.52336 21.2 2.26711 22.1125L0.0546101 30.1C-0.0891399 30.6187 0.0546101 31.1812 0.44211 31.5625C0.82961 31.9438 1.38586 32.0938 1.90461 31.95L9.89211 29.7313C10.8046 29.475 11.6359 28.9937 12.3109 28.3188L25.7484 14.8687L17.1296 6.25Z" fill="black"/>
</g>
<defs>
<clipPath id="clip0_63_343">
<rect width="31.9984" height="32.0037" fill="white"/>
</clipPath>
</defs>
</svg>
