<svg width="32" height="32" viewBox="0 0 32 32" fill="none" xmlns="http://www.w3.org/2000/svg">
<g clip-path="url(#clip0_97_123)">
<path d="M12.1555 1.5C12.3439 0.629412 13.1664 0 14.1208 0H17.8757C18.8301 0 19.6526 0.629412 19.841 1.5L20.7514 5.61765C21.6368 5.97059 22.4656 6.42353 23.2191 6.95882L27.4762 5.63529C28.3804 5.35294 29.3725 5.70588 29.8497 6.48235L31.7271 9.52941C32.2043 10.3059 32.0348 11.2824 31.319 11.8765L27.9723 14.6647C28.0288 15.1 28.0539 15.5471 28.0539 16C28.0539 16.4529 28.0225 16.9 27.9723 17.3353L31.3253 20.1294C32.0411 20.7235 32.2043 21.7059 31.7334 22.4765L29.856 25.5235C29.3788 26.2941 28.3867 26.6529 27.4825 26.3706L23.2254 25.0471C22.4656 25.5824 21.6368 26.0294 20.7577 26.3882L19.8535 30.5C19.6589 31.3765 18.8363 32 17.8882 32H14.1334C13.179 32 12.3564 31.3706 12.168 30.5L11.2639 26.3882C10.3785 26.0353 9.55599 25.5824 8.79623 25.0471L4.52024 26.3706C3.61606 26.6529 2.62398 26.3 2.14678 25.5235L0.269358 22.4765C-0.207845 21.7 -0.0383121 20.7235 0.677493 20.1294L4.03047 17.3353C3.97396 16.9 3.94885 16.4529 3.94885 16C3.94885 15.5471 3.98024 15.1 4.03047 14.6647L0.677493 11.8706C-0.0383121 11.2765 -0.201566 10.2941 0.269358 9.52353L2.14678 6.47647C2.62398 5.7 3.61606 5.34706 4.52024 5.62941L8.77739 6.95294C9.53715 6.41765 10.366 5.97059 11.245 5.61176L12.1555 1.5ZM15.9982 20.7059C18.7735 20.6941 21.0152 18.5824 21.0026 15.9824C20.99 13.3824 18.7359 11.2824 15.9606 11.2941C13.1852 11.3059 10.9436 13.4176 10.9562 16.0176C10.9688 18.6176 13.2229 20.7176 15.9982 20.7059Z" fill="#4B5FAB"/>
</g>
<defs>
<clipPath id="clip0_97_123">
<rect width="32" height="32" fill="white"/>
</clipPath>
</defs>
</svg>
