<svg width="32" height="32" viewBox="0 0 32 32" fill="none" xmlns="http://www.w3.org/2000/svg">
<g clip-path="url(#clip0_97_111)">
<path d="M8.36481 0.328323C9.04599 0.901839 9.20848 2.03378 8.73352 2.84878L5.23386 8.88579C4.97764 9.32347 4.57768 9.60268 4.13397 9.64796C3.69027 9.69324 3.25281 9.51213 2.94034 9.13482L0.440582 6.11631C-0.140611 5.40696 -0.140611 4.25993 0.440582 3.55058C1.02178 2.84123 1.97793 2.84878 2.56537 3.55058L3.80275 5.04474L6.27751 0.773552C6.75247 -0.0489905 7.68987 -0.245193 8.36481 0.328323ZM8.36481 12.4023C9.04599 12.9759 9.20848 14.1078 8.73352 14.9228L5.23386 20.9598C4.97764 21.3975 4.57768 21.6767 4.13397 21.722C3.69027 21.7673 3.25281 21.5862 2.94034 21.2088L0.440582 18.1903C-0.146861 17.481 -0.146861 16.334 0.440582 15.6321C1.02802 14.9303 1.97793 14.9228 2.55913 15.6321L3.7965 17.1263L6.27126 12.8551C6.74622 12.0326 7.68362 11.8364 8.35856 12.4099L8.36481 12.4023ZM14.0018 4.83344C14.0018 3.49775 14.8954 2.41864 16.0016 2.41864H30.0002C31.1063 2.41864 32 3.49775 32 4.83344C32 6.16913 31.1063 7.24825 30.0002 7.24825H16.0016C14.8954 7.24825 14.0018 6.16913 14.0018 4.83344ZM14.0018 16.9075C14.0018 15.5718 14.8954 14.4927 16.0016 14.4927H30.0002C31.1063 14.4927 32 15.5718 32 16.9075C32 18.2432 31.1063 19.3223 30.0002 19.3223H16.0016C14.8954 19.3223 14.0018 18.2432 14.0018 16.9075ZM10.0021 28.9815C10.0021 27.6458 10.8958 26.5667 12.002 26.5667H30.0002C31.1063 26.5667 32 27.6458 32 28.9815C32 30.3172 31.1063 31.3963 30.0002 31.3963H12.002C10.8958 31.3963 10.0021 30.3172 10.0021 28.9815ZM4.00273 25.963C5.38385 25.963 6.50249 27.3138 6.50249 28.9815C6.50249 30.6492 5.38385 32 4.00273 32C2.62162 32 1.50298 30.6492 1.50298 28.9815C1.50298 27.3138 2.62162 25.963 4.00273 25.963Z" fill="#4B5FAB"/>
</g>
<defs>
<clipPath id="clip0_97_111">
<rect width="32" height="32" fill="white"/>
</clipPath>
</defs>
</svg>
